<svg width="1363" height="443" fill="none" xmlns="http://www.w3.org/2000/svg"><path d="M44.889 50.913v15.063a1.913 1.913 0 01-1.913 1.913H27.913A1.912 1.912 0 0026 69.8v9.4c0 1.056.856 1.912 1.913 1.912h15.063c1.057 0 1.913.856 1.913 1.913v15.064c0 1.056.856 1.912 1.912 1.912H56.2a1.912 1.912 0 001.912-1.912V83.024c0-1.057.856-1.913 1.913-1.913h15.064A1.912 1.912 0 0077 79.2v-9.4a1.912 1.912 0 00-1.912-1.912H60.024a1.913 1.913 0 01-1.913-1.913V50.913A1.912 1.912 0 0056.2 49h-9.4a1.912 1.912 0 00-1.912 1.913zm143 85.999v15.064a1.912 1.912 0 01-1.913 1.913h-15.064a1.912 1.912 0 00-1.912 1.912v9.398c0 1.056.856 1.912 1.912 1.912h15.064c1.057 0 1.913.856 1.913 1.913v15.064c0 1.056.856 1.912 1.912 1.912h9.398a1.912 1.912 0 001.912-1.912v-15.064c0-1.057.856-1.913 1.913-1.913h15.064a1.912 1.912 0 001.912-1.912v-9.398a1.912 1.912 0 00-1.912-1.912h-15.064a1.912 1.912 0 01-1.913-1.913v-15.064a1.912 1.912 0 00-1.912-1.912h-9.398a1.912 1.912 0 00-1.912 1.912zM1010.89 24.913v15.063c0 1.057-.86 1.913-1.91 1.913h-15.068A1.912 1.912 0 00992 43.8v9.4c0 1.056.856 1.912 1.912 1.912h15.068c1.05 0 1.91.856 1.91 1.913v15.064c0 1.056.86 1.912 1.91 1.912h9.4c1.05 0 1.91-.856 1.91-1.912V57.024c0-1.057.86-1.913 1.91-1.913h15.07c1.05 0 1.91-.856 1.91-1.912V43.8c0-1.056-.86-1.912-1.91-1.912h-15.07c-1.05 0-1.91-.856-1.91-1.913V24.913c0-1.057-.86-1.913-1.91-1.913h-9.4c-1.05 0-1.91.856-1.91 1.913zm283 45.999v15.064c0 1.057-.86 1.913-1.91 1.913h-15.07c-1.05 0-1.91.856-1.91 1.912V99.2c0 1.056.86 1.912 1.91 1.912h15.07c1.05 0 1.91.856 1.91 1.913v15.064c0 1.056.86 1.912 1.91 1.912h9.4c1.05 0 1.91-.856 1.91-1.912v-15.064c0-1.057.86-1.913 1.91-1.913h15.07c1.05 0 1.91-.856 1.91-1.912v-9.4c0-1.056-.86-1.912-1.91-1.912h-15.07c-1.05 0-1.91-.856-1.91-1.913V70.912c0-1.056-.86-1.912-1.91-1.912h-9.4c-1.05 0-1.91.856-1.91 1.912zM318.889 17.913v15.063a1.912 1.912 0 01-1.913 1.913h-15.064A1.912 1.912 0 00300 36.8v9.4c0 1.056.856 1.912 1.912 1.912h15.064c1.057 0 1.913.856 1.913 1.913v15.064c0 1.056.856 1.912 1.912 1.912h9.398a1.912 1.912 0 001.912-1.912V50.024c0-1.057.856-1.913 1.913-1.913h15.064A1.912 1.912 0 00351 46.2v-9.4a1.912 1.912 0 00-1.912-1.912h-15.064a1.912 1.912 0 01-1.913-1.913V17.913A1.912 1.912 0 00330.199 16h-9.398a1.912 1.912 0 00-1.912 1.913zM39.333 320.35v10.633a1.35 1.35 0 01-1.35 1.35H27.35a1.35 1.35 0 00-1.35 1.35v6.634c0 .745.604 1.35 1.35 1.35h10.633c.746 0 1.35.604 1.35 1.35v10.633c0 .746.605 1.35 1.35 1.35h6.634a1.35 1.35 0 001.35-1.35v-10.633c0-.746.604-1.35 1.35-1.35H60.65a1.35 1.35 0 001.35-1.35v-6.634a1.35 1.35 0 00-1.35-1.35H50.017a1.35 1.35 0 01-1.35-1.35V320.35a1.35 1.35 0 00-1.35-1.35h-6.634a1.35 1.35 0 00-1.35 1.35zm1263.997 60v10.633c0 .746-.6 1.35-1.35 1.35h-10.63c-.75 0-1.35.605-1.35 1.35v6.634c0 .745.6 1.35 1.35 1.35h10.63c.75 0 1.35.604 1.35 1.35v10.633c0 .746.61 1.35 1.35 1.35h6.64c.74 0 1.35-.604 1.35-1.35v-10.633c0-.746.6-1.35 1.35-1.35h10.63c.75 0 1.35-.605 1.35-1.35v-6.634c0-.745-.6-1.35-1.35-1.35h-10.63c-.75 0-1.35-.604-1.35-1.35V380.35c0-.746-.61-1.35-1.35-1.35h-6.64c-.74 0-1.35.604-1.35 1.35zm-169-236v10.633c0 .746-.6 1.35-1.35 1.35h-10.63c-.75 0-1.35.605-1.35 1.35v6.634c0 .745.6 1.35 1.35 1.35h10.63c.75 0 1.35.604 1.35 1.35v10.633c0 .746.61 1.35 1.35 1.35h6.64c.74 0 1.35-.604 1.35-1.35v-10.633c0-.746.6-1.35 1.35-1.35h10.63c.75 0 1.35-.605 1.35-1.35v-6.634c0-.745-.6-1.35-1.35-1.35h-10.63c-.75 0-1.35-.604-1.35-1.35V144.35c0-.746-.61-1.35-1.35-1.35h-6.64c-.74 0-1.35.604-1.35 1.35zm206 83v10.633c0 .746-.6 1.35-1.35 1.35h-10.63c-.75 0-1.35.605-1.35 1.35v6.634c0 .745.6 1.35 1.35 1.35h10.63c.75 0 1.35.604 1.35 1.35v10.633c0 .746.61 1.35 1.35 1.35h6.64c.74 0 1.35-.604 1.35-1.35v-10.633c0-.746.6-1.35 1.35-1.35h10.63c.75 0 1.35-.605 1.35-1.35v-6.634c0-.745-.6-1.35-1.35-1.35h-10.63c-.75 0-1.35-.604-1.35-1.35V227.35c0-.746-.61-1.35-1.35-1.35h-6.64c-.74 0-1.35.604-1.35 1.35z" fill="#fff"/></svg>