<svg width="52" height="62" viewBox="0 0 52 62" fill="none" xmlns="http://www.w3.org/2000/svg">
<path fill-rule="evenodd" clip-rule="evenodd" d="M14.5854 1.1899C14.5854 1.84497 11.303 2.54889 7.29268 2.75556L0 3.13131V32.5657V62H26H52V32.5657V3.13131L44.7073 2.75556C40.697 2.54889 37.4146 1.84497 37.4146 1.1899C37.4146 0.526061 32.3643 0 26 0C19.6357 0 14.5854 0.526061 14.5854 1.1899ZM34.878 6.26263V10.0202H26H17.122V6.26263V2.50505H26H34.878V6.26263ZM14.5854 6.26263C14.5854 6.95151 12.5878 7.51515 10.1463 7.51515H5.70732V31.9394V56.3636H26H46.2927V31.9394V7.51515H41.8537C39.4122 7.51515 37.4146 6.95151 37.4146 6.26263C37.4146 5.57374 40.2683 5.0101 43.7561 5.0101H50.0976V32.5657V60.1212H26H1.90244V32.5657V5.0101H8.2439C11.7317 5.0101 14.5854 5.57374 14.5854 6.26263ZM14.5854 11.2727C14.5854 12.0155 19.2362 12.5253 26 12.5253C32.7638 12.5253 37.4146 12.0155 37.4146 11.2727C37.4146 10.5838 38.8415 10.0202 40.5854 10.0202H43.7561V31.9394V53.8586H26H8.2439V31.9394V10.0202H11.4146C13.1585 10.0202 14.5854 10.5838 14.5854 11.2727ZM27.2683 17.5354C27.2683 18.2242 29.8366 18.7879 32.9756 18.7879C36.1146 18.7879 38.6829 18.2242 38.6829 17.5354C38.6829 16.8465 36.1146 16.2828 32.9756 16.2828C29.8366 16.2828 27.2683 16.8465 27.2683 17.5354ZM17.122 20.6667C17.122 21.7 16.2659 22.5455 15.2195 22.5455C14.1732 22.5455 13.3171 23.1091 13.3171 23.798C13.3171 24.4869 14.1732 25.0505 15.2195 25.0505C16.2659 25.0505 17.122 25.896 17.122 26.9293C17.122 27.9626 17.6927 28.8081 18.3902 28.8081C19.0878 28.8081 19.6585 27.9626 19.6585 26.9293C19.6585 25.896 20.5146 25.0505 21.561 25.0505C22.6073 25.0505 23.4634 24.4869 23.4634 23.798C23.4634 23.1091 22.6073 22.5455 21.561 22.5455C20.5146 22.5455 19.6585 21.7 19.6585 20.6667C19.6585 19.6333 19.0878 18.7879 18.3902 18.7879C17.6927 18.7879 17.122 19.6333 17.122 20.6667ZM27.2683 23.798C27.2683 24.4869 29.8366 25.0505 32.9756 25.0505C36.1146 25.0505 38.6829 24.4869 38.6829 23.798C38.6829 23.1091 36.1146 22.5455 32.9756 22.5455C29.8366 22.5455 27.2683 23.1091 27.2683 23.798ZM27.2683 30.0606C27.2683 30.7495 29.8366 31.3131 32.9756 31.3131C36.1146 31.3131 38.6829 30.7495 38.6829 30.0606C38.6829 29.3717 36.1146 28.8081 32.9756 28.8081C29.8366 28.8081 27.2683 29.3717 27.2683 30.0606ZM13.3171 36.3232C13.3171 37.0747 18.3902 37.5758 26 37.5758C33.6098 37.5758 38.6829 37.0747 38.6829 36.3232C38.6829 35.5717 33.6098 35.0707 26 35.0707C18.3902 35.0707 13.3171 35.5717 13.3171 36.3232ZM13.3171 42.5859C13.3171 43.3374 18.3902 43.8384 26 43.8384C33.6098 43.8384 38.6829 43.3374 38.6829 42.5859C38.6829 41.8343 33.6098 41.3333 26 41.3333C18.3902 41.3333 13.3171 41.8343 13.3171 42.5859ZM13.3171 48.8485C13.3171 49.6 18.3902 50.101 26 50.101C33.6098 50.101 38.6829 49.6 38.6829 48.8485C38.6829 48.097 33.6098 47.596 26 47.596C18.3902 47.596 13.3171 48.097 13.3171 48.8485Z" fill="#C7D6FF"/>
<path fill-rule="evenodd" clip-rule="evenodd" d="M14.5854 1.1899C14.5854 1.84497 11.303 2.54889 7.29268 2.75556L0 3.13131V32.5657V62H26H52V32.5657V3.13131L44.7073 2.75556C40.697 2.54889 37.4146 1.84497 37.4146 1.1899C37.4146 0.526061 32.3643 0 26 0C19.6357 0 14.5854 0.526061 14.5854 1.1899ZM34.878 6.26263V10.0202H26H17.122V6.26263V2.50505H26H34.878V6.26263ZM14.5854 6.26263C14.5854 6.95152 12.5878 7.51515 10.1463 7.51515H5.70732V31.9394V56.3636H26H46.2927V31.9394V7.51515H41.8537C39.4122 7.51515 37.4146 6.95152 37.4146 6.26263C37.4146 5.57374 40.2683 5.0101 43.7561 5.0101H50.0976V32.5657V60.1212H26H1.90244V32.5657V5.0101H8.2439C11.7317 5.0101 14.5854 5.57374 14.5854 6.26263ZM14.5854 11.2727C14.5854 12.0155 19.2362 12.5253 26 12.5253C32.7638 12.5253 37.4146 12.0155 37.4146 11.2727C37.4146 10.5838 38.8415 10.0202 40.5854 10.0202H43.7561V31.9394V53.8586H26H8.2439V31.9394V10.0202H11.4146C13.1585 10.0202 14.5854 10.5838 14.5854 11.2727Z" fill="#3250A5"/>
</svg>
