<svg width="68" height="50" viewBox="0 0 68 50" fill="none" xmlns="http://www.w3.org/2000/svg">
<path fill-rule="evenodd" clip-rule="evenodd" d="M3.82213 3.82727C-1.03081 8.41703 -1.15207 10.1773 2.83159 18.2431C8.89606 30.5238 31.5763 49.9999 39.8134 49.9999C42.2977 49.9999 49.6417 42.7295 49.6417 40.2715C49.6417 39.3851 46.8174 36.7795 43.3653 34.4806C37.1002 30.3102 37.0809 30.3056 33.1528 32.184L29.2167 34.0658L22.4417 27.2727L15.6666 20.4795L17.5434 16.5329C19.4168 12.5943 19.4123 12.575 15.2529 6.29317C12.9602 2.83181 10.3615 0 9.47746 0C8.59346 0 6.04799 1.72272 3.82213 3.82727ZM13.4668 7.52044C17.0436 12.7318 17.0549 12.7943 15.1702 16.7556L13.2741 20.7443L21.1134 28.6045L28.9527 36.4647L32.9307 34.5636C36.8815 32.6738 36.9438 32.6852 42.1413 36.2715C45.0199 38.2567 47.375 40.2726 47.375 40.7511C47.375 42.5022 40.9524 47.7272 38.8127 47.7169C29.5114 47.6715 2.09719 20.1841 2.05186 10.8579C2.04166 8.71248 7.25273 2.27272 8.99919 2.27272C9.47633 2.27272 11.4869 4.63408 13.4668 7.52044Z" fill="#3250A5"/>
<path d="M32.5239 17.5455V16.0239L36.0545 12.3899C36.8424 11.5626 37.2363 10.8732 37.2363 10.3217C37.2363 9.9179 37.1083 9.5929 36.8523 9.34668C36.606 9.10047 36.286 8.97737 35.892 8.97737C35.114 8.97737 34.5379 9.38115 34.1636 10.1887L32.45 9.18418C32.775 8.4751 33.2428 7.93343 33.8534 7.55919C34.464 7.18495 35.1337 6.99782 35.8625 6.99782C36.7981 6.99782 37.6007 7.29328 38.2704 7.88419C38.9401 8.46525 39.275 9.25312 39.275 10.2478C39.275 11.3213 38.7087 12.4243 37.5761 13.5569L35.5523 15.5808H39.4375V17.5455H32.5239ZM48.1468 13.8967V15.7876H47.0388V17.5455H44.9854V15.7876H40.0957V13.8967L43.5377 7.20464H45.7241L42.2968 13.8967H44.9854V11.4444H47.0388V13.8967H48.1468ZM49.6843 19.0228H48.8423L54.7513 5.72737H55.5934L49.6843 19.0228ZM56.2794 7.20464H62.9567V8.93305L59.4555 17.5455H57.2987L60.6964 9.15464H56.2794V7.20464Z" fill="#C7D6FF"/>
</svg>
