<svg width="61" height="55" viewBox="0 0 61 55" fill="none" xmlns="http://www.w3.org/2000/svg">
<path fill-rule="evenodd" clip-rule="evenodd" d="M47.1649 2.50675C47.1649 4.17751 46.326 5.01351 44.6495 5.01351C42.6925 5.01351 42.134 5.84951 42.134 8.77364C42.134 11.6978 42.6925 12.5338 44.6495 12.5338C46.326 12.5338 47.1649 13.3698 47.1649 15.0405C47.1649 16.9908 48.0039 17.5473 50.9381 17.5473C53.8724 17.5473 54.7113 16.9908 54.7113 15.0405C54.7113 13.3698 55.5502 12.5338 57.2268 12.5338C59.1838 12.5338 59.7423 11.6978 59.7423 8.77364C59.7423 5.84951 59.1838 5.01351 57.2268 5.01351C55.5502 5.01351 54.7113 4.17751 54.7113 2.50675C54.7113 0.556499 53.8724 0 50.9381 0C48.0039 0 47.1649 0.556499 47.1649 2.50675ZM52.1959 5.01351C52.1959 6.68426 53.0348 7.52026 54.7113 7.52026C56.0948 7.52026 57.2268 8.08428 57.2268 8.77364C57.2268 9.463 56.0948 10.027 54.7113 10.027C53.0348 10.027 52.1959 10.863 52.1959 12.5338C52.1959 13.9125 51.6299 15.0405 50.9381 15.0405C50.2464 15.0405 49.6804 13.9125 49.6804 12.5338C49.6804 10.863 48.8415 10.027 47.1649 10.027C45.7814 10.027 44.6495 9.463 44.6495 8.77364C44.6495 8.08428 45.7814 7.52026 47.1649 7.52026C48.8415 7.52026 49.6804 6.68426 49.6804 5.01351C49.6804 3.63479 50.2464 2.50675 50.9381 2.50675C51.6299 2.50675 52.1959 3.63479 52.1959 5.01351ZM2.96951 14.9641L0 17.3956L8.77016 26.2445C16.0902 33.6306 18.2233 35.0946 21.6619 35.0946C25.22 35.0946 25.7835 35.5232 25.7835 38.228C25.7835 40.7636 25.1622 41.3614 22.526 41.3614C18.8358 41.3614 11.9485 47.1759 11.9485 50.2905C11.9485 51.4148 12.7698 53.0141 13.7747 53.8451C17.9843 57.327 23.9447 52.2558 21.0582 47.6496C20.1979 46.2784 19.4948 44.8659 19.4948 44.5124C19.4948 44.1577 27.1356 43.8682 36.4742 43.8682C45.8129 43.8682 53.4536 44.1577 53.4536 44.5124C53.4536 44.8659 52.7505 46.2784 51.8902 47.6496C49.0037 52.2558 54.9641 57.327 59.1738 53.8451C60.1787 53.0141 61 51.3571 61 50.1639C61 47.2486 53.6875 41.3614 50.0665 41.3614C47.8102 41.3614 47.1649 40.6646 47.1649 38.228C47.1649 35.265 47.5423 35.0946 54.0825 35.0946C60.4617 35.0946 61 34.8702 61 32.2118C61 27.9679 58.643 26.3209 52.5732 26.3209C48.2038 26.3209 47.1649 25.8873 47.1649 24.0648C47.1649 20.1543 44.4168 18.8007 36.4742 18.8007C28.5316 18.8007 25.7835 20.1543 25.7835 24.0648C25.7835 28.2198 21.3965 26.4237 14.4639 19.4273C10.7071 15.6359 7.25082 12.5338 6.78546 12.5338C6.3201 12.5338 4.60204 13.628 2.96951 14.9641ZM13.6149 21.0843C17.7655 25.2844 19.3401 27.7698 18.7779 29.2313C18.3327 30.3881 17.5064 31.3344 16.9416 31.3344C15.0613 31.3344 4.17441 17.6739 4.99823 16.3465C6.33268 14.1957 7.36905 14.766 13.6149 21.0843ZM44.6495 23.8142C44.6495 26.064 43.8106 26.3209 36.4742 26.3209C29.1379 26.3209 28.299 26.064 28.299 23.8142C28.299 21.5644 29.1379 21.3074 36.4742 21.3074C43.8106 21.3074 44.6495 21.5644 44.6495 23.8142ZM58.4845 30.7077C58.4845 32.2983 55.4848 32.5878 39.0287 32.5878C22.2518 32.5878 19.6734 32.3284 20.2973 30.7077C20.896 29.1536 24.2629 28.8277 39.7531 28.8277C55.5653 28.8277 58.4845 29.121 58.4845 30.7077ZM44.6495 38.228C44.6495 41.2486 44.3564 41.3614 36.4742 41.3614C28.592 41.3614 28.299 41.2486 28.299 38.228C28.299 35.2074 28.592 35.0946 36.4742 35.0946C44.3564 35.0946 44.6495 35.2074 44.6495 38.228ZM18.9339 48.9908C20.2294 51.0814 17.3152 53.4778 15.5795 51.7482C14.1281 50.3018 15.0362 47.6283 16.9794 47.6283C17.5894 47.6283 18.4685 48.2412 18.9339 48.9908ZM57.9236 48.9908C59.2191 51.0814 56.3049 53.4778 54.5692 51.7482C53.1178 50.3018 54.0259 47.6283 55.9691 47.6283C56.5791 47.6283 57.4582 48.2412 57.9236 48.9908Z" fill="#C7D6FF"/>
<path fill-rule="evenodd" clip-rule="evenodd" d="M2.96951 14.964L0 17.3955L8.77016 26.2444C16.0902 33.6305 18.2233 35.0945 21.6619 35.0945C25.22 35.0945 25.7835 35.5231 25.7835 38.2279C25.7835 40.7635 25.1622 41.3614 22.526 41.3614C18.8358 41.3614 11.9485 47.1758 11.9485 50.2904C11.9485 51.4147 12.7698 53.014 13.7747 53.845C17.9843 57.3269 23.9447 52.2557 21.0582 47.6496C20.1979 46.2784 19.4948 44.8658 19.4948 44.5124C19.4948 44.1576 27.1356 43.8681 36.4742 43.8681C45.8129 43.8681 53.4536 44.1576 53.4536 44.5124C53.4536 44.8658 52.7505 46.2784 51.8902 47.6496C49.0038 52.2557 54.9641 57.3269 59.1738 53.845C60.1787 53.014 61 51.357 61 50.1638C61 47.2485 53.6875 41.3614 50.0665 41.3614C47.8102 41.3614 47.1649 40.6645 47.1649 38.2279C47.1649 35.2649 47.5423 35.0945 54.0825 35.0945C60.4617 35.0945 61 34.8701 61 32.2117C61 27.9678 58.643 26.3208 52.5732 26.3208C48.2038 26.3208 47.1649 25.8872 47.1649 24.0648C47.1649 20.1542 44.4168 18.8006 36.4742 18.8006C28.5316 18.8006 25.7835 20.1542 25.7835 24.0648C25.7835 28.2197 21.3965 26.4236 14.4639 19.4273C10.7071 15.6358 7.25082 12.5337 6.78546 12.5337C6.3201 12.5337 4.60204 13.6279 2.96951 14.964ZM13.6149 21.0842C17.7655 25.2843 19.3401 27.7697 18.7779 29.2312C18.3327 30.3881 17.5064 31.3343 16.9416 31.3343C15.0613 31.3343 4.17441 17.6738 4.99823 16.3465C6.33268 14.1957 7.36905 14.766 13.6149 21.0842ZM44.6495 23.8141C44.6495 26.0639 43.8106 26.3208 36.4742 26.3208C29.1379 26.3208 28.299 26.0639 28.299 23.8141C28.299 21.5643 29.1379 21.3073 36.4742 21.3073C43.8106 21.3073 44.6495 21.5643 44.6495 23.8141ZM58.4845 30.7077C58.4845 32.2982 55.4848 32.5877 39.0287 32.5877C22.2518 32.5877 19.6734 32.3283 20.2973 30.7077C20.896 29.1535 24.2629 28.8276 39.7531 28.8276C55.5653 28.8276 58.4845 29.1209 58.4845 30.7077ZM44.6495 38.2279C44.6495 41.2486 44.3564 41.3614 36.4742 41.3614C28.592 41.3614 28.299 41.2486 28.299 38.2279C28.299 35.2073 28.592 35.0945 36.4742 35.0945C44.3564 35.0945 44.6495 35.2073 44.6495 38.2279ZM18.9339 48.9907C20.2294 51.0813 17.3152 53.4778 15.5795 51.7481C14.1281 50.3017 15.0362 47.6283 16.9794 47.6283C17.5894 47.6283 18.4685 48.2412 18.9339 48.9907ZM57.9236 48.9907C59.2191 51.0813 56.3049 53.4778 54.5692 51.7481C53.1178 50.3017 54.0259 47.6283 55.9691 47.6283C56.5791 47.6283 57.4582 48.2412 57.9236 48.9907Z" fill="#3250A5"/>
</svg>
