<svg width="60" height="58" viewBox="0 0 60 58" fill="none" xmlns="http://www.w3.org/2000/svg">
<path fill-rule="evenodd" clip-rule="evenodd" d="M30.1041 2.38199C30.1041 3.69208 30.6449 4.76398 31.306 4.76398C31.967 4.76398 32.5078 3.69208 32.5078 2.38199C32.5078 1.0719 31.967 0 31.306 0C30.6449 0 30.1041 1.0719 30.1041 2.38199ZM21.9168 4.83901C22.2052 5.69772 23.1523 6.63622 24.0201 6.92325C24.9215 7.221 25.3722 6.77438 25.0717 5.88113C24.7821 5.02123 23.835 4.08273 22.9684 3.79689C22.067 3.49914 21.6163 3.94458 21.9168 4.83901ZM37.8671 4.84378C37.4308 5.5417 37.3635 6.39922 37.7156 6.74937C38.5774 7.60212 40.9211 6.09909 40.9211 4.69371C40.9211 3.17162 38.8466 3.27285 37.8671 4.84378ZM27.9407 8.57516C27.1474 9.36122 26.4984 11.237 26.4984 12.7436C26.4984 15.4162 26.2087 15.4829 14.7199 15.4829C7.16117 15.4829 2.42451 15.9951 1.49906 16.9121C-0.499686 18.8928 -0.499686 47.803 1.49906 49.7836C2.29231 50.5696 4.14923 51.2128 5.62515 51.2128C7.25251 51.2128 8.60824 52.1501 9.07097 53.596C10.8582 59.177 19.4445 59.5521 21.9252 54.1569C23.1679 51.4534 23.9336 51.2128 31.306 51.2128C38.6783 51.2128 39.444 51.4534 40.6867 54.1569C43.0941 59.3925 51.7441 59.2067 53.4484 53.883C53.8174 52.7301 55.3414 51.2557 56.8353 50.6066C59.0264 49.6538 59.6225 48.3115 59.9218 43.6476C60.2595 38.3905 59.7186 37.0018 53.9352 28.273C45.8693 16.0975 45.2106 15.4829 40.2348 15.4829C36.7361 15.4829 36.1135 15.0697 36.1135 12.7436C36.1135 7.87009 31.1882 5.3571 27.9407 8.57516ZM33.4934 12.8961C33.7818 14.841 33.259 15.4829 31.3901 15.4829C29.7783 15.4829 28.9022 14.7136 28.9022 13.2998C28.9022 8.77168 32.8287 8.42748 33.4934 12.8961ZM18.0852 11.91C18.0852 12.565 19.1669 13.1009 20.4889 13.1009C21.811 13.1009 22.8927 12.565 22.8927 11.91C22.8927 11.2549 21.811 10.719 20.4889 10.719C19.1669 10.719 18.0852 11.2549 18.0852 11.91ZM39.7192 11.91C39.7192 12.565 40.8009 13.1009 42.123 13.1009C43.445 13.1009 44.5267 12.565 44.5267 11.91C44.5267 11.2549 43.445 10.719 42.123 10.719C40.8009 10.719 39.7192 11.2549 39.7192 11.91ZM45.1277 19.0559C45.57 19.7646 44.1385 20.2469 41.5929 20.2469H37.3154V27.9407V35.6334L47.231 35.98L57.1466 36.3253L57.5096 42.5781C57.917 49.5918 56.1238 50.7947 51.7381 46.4488C50.416 45.1387 48.2526 44.0668 46.9305 44.0668C45.6085 44.0668 43.445 45.1387 42.123 46.4488C40.1771 48.377 38.1171 48.8308 31.306 48.8308C24.4948 48.8308 22.4348 48.377 20.4889 46.4488C19.1669 45.1387 17.0035 44.0668 15.6814 44.0668C14.3593 44.0668 12.1959 45.1387 10.8738 46.4488C9.55173 47.7589 7.1179 48.8308 5.4653 48.8308H2.46057V33.3479V17.8649H23.4228C36.1015 17.8649 44.6782 18.3354 45.1277 19.0559ZM50.9773 27.3679C52.7176 29.9738 54.1419 32.3855 54.1419 32.7274C54.1419 33.068 50.8968 33.3479 46.9305 33.3479H39.7192V27.9884C39.7192 22.698 39.7709 22.6289 43.766 22.6289C47.1529 22.6289 48.3295 23.4031 50.9773 27.3679ZM16.8833 27.3929C16.8833 28.9805 16.0816 29.7749 14.4795 29.7749C13.1574 29.7749 12.0757 30.3108 12.0757 30.9659C12.0757 31.6209 13.1574 32.1569 14.4795 32.1569C16.0816 32.1569 16.8833 32.9513 16.8833 34.5389C16.8833 35.8489 17.4241 36.9208 18.0852 36.9208C18.7462 36.9208 19.287 35.8489 19.287 34.5389C19.287 32.9513 20.0887 32.1569 21.6908 32.1569C23.0129 32.1569 24.0946 31.6209 24.0946 30.9659C24.0946 30.3108 23.0129 29.7749 21.6908 29.7749C20.0887 29.7749 19.287 28.9805 19.287 27.3929C19.287 26.0828 18.7462 25.0109 18.0852 25.0109C17.4241 25.0109 16.8833 26.0828 16.8833 27.3929ZM19.239 48.1781C22.4324 51.9905 17.7426 57.8466 13.5781 55.2479C10.9075 53.5817 10.2548 50.4089 12.1238 48.1781C13.9795 45.9617 17.3832 45.9617 19.239 48.1781ZM50.4881 48.1781C53.6815 51.9905 48.9918 57.8466 44.8272 55.2479C42.1566 53.5817 41.504 50.4089 43.3729 48.1781C45.2287 45.9617 48.6324 45.9617 50.4881 48.1781Z" fill="#C7D6FF"/>
<path fill-rule="evenodd" clip-rule="evenodd" d="M27.9407 8.57525C27.1474 9.3613 26.4984 11.2371 26.4984 12.7437C26.4984 15.4163 26.2087 15.483 14.7199 15.483C7.16117 15.483 2.42451 15.9951 1.49906 16.9122C-0.499686 18.8928 -0.499686 47.803 1.49906 49.7837C2.29231 50.5697 4.14923 51.2129 5.62515 51.2129C7.25251 51.2129 8.60824 52.1502 9.07097 53.596C10.8582 59.177 19.4445 59.5522 21.9252 54.157C23.1679 51.4534 23.9336 51.2129 31.306 51.2129C38.6783 51.2129 39.444 51.4534 40.6867 54.157C43.0941 59.3926 51.7441 59.2068 53.4484 53.8831C53.8174 52.7302 55.3414 51.2557 56.8353 50.6067C59.0264 49.6539 59.6225 48.3116 59.9218 43.6477C60.2595 38.3906 59.7186 37.0019 53.9352 28.2731C45.8693 16.0976 45.2106 15.483 40.2348 15.483C36.7361 15.483 36.1135 15.0697 36.1135 12.7437C36.1135 7.87018 31.1882 5.35718 27.9407 8.57525ZM33.4934 12.8962C33.7818 14.8411 33.259 15.483 31.3901 15.483C29.7783 15.483 28.9022 14.7136 28.9022 13.2999C28.9022 8.77176 32.8287 8.42756 33.4934 12.8962ZM45.1277 19.056C45.57 19.7646 44.1385 20.247 41.5929 20.247H37.3154V27.9408V35.6335L47.231 35.98L57.1466 36.3254L57.5096 42.5782C57.917 49.5919 56.1238 50.7948 51.7381 46.4489C50.416 45.1388 48.2526 44.0669 46.9305 44.0669C45.6085 44.0669 43.445 45.1388 42.123 46.4489C40.1771 48.3771 38.1171 48.8309 31.306 48.8309C24.4948 48.8309 22.4348 48.3771 20.4889 46.4489C19.1669 45.1388 17.0035 44.0669 15.6814 44.0669C14.3593 44.0669 12.1959 45.1388 10.8738 46.4489C9.55173 47.759 7.1179 48.8309 5.4653 48.8309H2.46057V33.3479V17.865H23.4228C36.1015 17.865 44.6782 18.3355 45.1277 19.056ZM50.9773 27.368C52.7176 29.9739 54.1419 32.3856 54.1419 32.7274C54.1419 33.0681 50.8968 33.3479 46.9305 33.3479H39.7192V27.9885C39.7192 22.6981 39.7709 22.629 43.766 22.629C47.1529 22.629 48.3295 23.4031 50.9773 27.368ZM19.239 48.1782C22.4324 51.9906 17.7426 57.8467 13.5781 55.248C10.9075 53.5818 10.2548 50.4089 12.1238 48.1782C13.9795 45.9618 17.3832 45.9618 19.239 48.1782ZM50.4881 48.1782C53.6815 51.9906 48.9918 57.8467 44.8272 55.248C42.1566 53.5818 41.504 50.4089 43.3729 48.1782C45.2287 45.9618 48.6324 45.9618 50.4881 48.1782Z" fill="#3250A5"/>
</svg>
