<svg width="62" height="50" viewBox="0 0 62 50" fill="none" xmlns="http://www.w3.org/2000/svg">
<path fill-rule="evenodd" clip-rule="evenodd" d="M21.3497 1.47988C20.5331 2.3036 19.8651 3.98848 19.8651 5.22406C19.8651 7.16728 18.7281 7.47056 11.452 7.47056C6.55756 7.47056 2.41783 8.09709 1.55425 8.96823C-0.518084 11.0587 -0.518084 46.3164 1.55425 48.4069C3.65999 50.531 58.34 50.531 60.4457 48.4069C62.5181 46.3164 62.5181 11.0587 60.4457 8.96823C59.5822 8.09709 55.4424 7.47056 50.548 7.47056C43.2719 7.47056 42.1349 7.16728 42.1349 5.22406C42.1349 3.98848 41.4669 2.3036 40.6503 1.47988C38.6942 -0.493295 23.3058 -0.493295 21.3497 1.47988ZM39.6605 4.97445C39.6605 7.23343 38.8353 7.47056 31 7.47056C23.1647 7.47056 22.3395 7.23343 22.3395 4.97445C22.3395 2.71546 23.1647 2.47833 31 2.47833C38.8353 2.47833 39.6605 2.71546 39.6605 4.97445ZM59.456 13.7109C59.456 16.5851 58.898 17.455 57.0545 17.455C55.7332 17.455 54.3092 16.8934 53.8885 16.207C52.8963 14.587 46.2202 14.587 45.228 16.207C44.2209 17.8507 17.7791 17.8507 16.772 16.207C15.7798 14.587 9.10375 14.587 8.1115 16.207C7.69085 16.8934 6.26681 17.455 4.94546 17.455C3.10201 17.455 2.54403 16.5851 2.54403 13.7109V9.96668H31H59.456V13.7109ZM14.9162 18.7031C14.9162 19.3895 13.8027 19.9511 12.4418 19.9511C11.0808 19.9511 9.96732 19.3895 9.96732 18.7031C9.96732 18.0166 11.0808 17.455 12.4418 17.455C13.8027 17.455 14.9162 18.0166 14.9162 18.7031ZM52.0327 18.7031C52.0327 19.3895 50.9192 19.9511 49.5582 19.9511C48.1973 19.9511 47.0838 19.3895 47.0838 18.7031C47.0838 18.0166 48.1973 17.455 49.5582 17.455C50.9192 17.455 52.0327 18.0166 52.0327 18.7031ZM8.1115 21.1992C8.53215 21.8856 10.4808 22.4473 12.4418 22.4473C14.4027 22.4473 16.3514 21.8856 16.772 21.1992C17.7791 19.5555 44.2209 19.5555 45.228 21.1992C46.2202 22.8192 52.8963 22.8192 53.8885 21.1992C54.3092 20.5128 55.7332 19.9511 57.0545 19.9511C59.2865 19.9511 59.456 20.9221 59.456 33.6798V47.4084H31H2.54403V33.6798C2.54403 20.9221 2.71352 19.9511 4.94546 19.9511C6.26681 19.9511 7.69085 20.5128 8.1115 21.1992ZM28.5256 27.4395C28.5256 29.1031 27.7003 29.9356 26.0511 29.9356C24.4019 29.9356 23.5767 30.7681 23.5767 32.4317C23.5767 34.0954 24.4019 34.9278 26.0511 34.9278C27.7003 34.9278 28.5256 35.7603 28.5256 37.4239C28.5256 39.0876 29.3508 39.9201 31 39.9201C32.6492 39.9201 33.4744 39.0876 33.4744 37.4239C33.4744 35.7603 34.2997 34.9278 35.9489 34.9278C37.5981 34.9278 38.4233 34.0954 38.4233 32.4317C38.4233 30.7681 37.5981 29.9356 35.9489 29.9356C34.2997 29.9356 33.4744 29.1031 33.4744 27.4395C33.4744 25.7758 32.6492 24.9434 31 24.9434C29.3508 24.9434 28.5256 25.7758 28.5256 27.4395Z" fill="#C7D6FF"/>
<path fill-rule="evenodd" clip-rule="evenodd" d="M21.3497 1.47988C20.5331 2.3036 19.8651 3.98848 19.8651 5.22406C19.8651 7.16728 18.7281 7.47056 11.452 7.47056C6.55756 7.47056 2.41783 8.09709 1.55425 8.96823C-0.518084 11.0587 -0.518084 46.3164 1.55425 48.4069C3.65999 50.531 58.34 50.531 60.4457 48.4069C62.5181 46.3164 62.5181 11.0587 60.4457 8.96823C59.5822 8.09709 55.4424 7.47056 50.548 7.47056C43.2719 7.47056 42.1349 7.16728 42.1349 5.22406C42.1349 3.98848 41.4669 2.3036 40.6503 1.47988C38.6942 -0.493295 23.3058 -0.493295 21.3497 1.47988ZM39.6605 4.97445C39.6605 7.23343 38.8353 7.47056 31 7.47056C23.1647 7.47056 22.3395 7.23343 22.3395 4.97445C22.3395 2.71546 23.1647 2.47833 31 2.47833C38.8353 2.47833 39.6605 2.71546 39.6605 4.97445ZM59.456 13.7109C59.456 16.5851 58.898 17.455 57.0545 17.455C55.7332 17.455 54.3092 16.8934 53.8885 16.207C52.8963 14.587 46.2202 14.587 45.228 16.207C44.2209 17.8507 17.7791 17.8507 16.772 16.207C15.7798 14.587 9.10375 14.587 8.1115 16.207C7.69085 16.8934 6.26681 17.455 4.94546 17.455C3.10201 17.455 2.54403 16.5851 2.54403 13.7109V9.96668H31H59.456V13.7109ZM14.9162 18.7031C14.9162 19.3895 13.8027 19.9511 12.4418 19.9511C11.0808 19.9511 9.96732 19.3895 9.96732 18.7031C9.96732 18.0166 11.0808 17.455 12.4418 17.455C13.8027 17.455 14.9162 18.0166 14.9162 18.7031ZM52.0327 18.7031C52.0327 19.3895 50.9192 19.9511 49.5582 19.9511C48.1973 19.9511 47.0838 19.3895 47.0838 18.7031C47.0838 18.0166 48.1973 17.455 49.5582 17.455C50.9192 17.455 52.0327 18.0166 52.0327 18.7031ZM8.1115 21.1992C8.53215 21.8856 10.4808 22.4473 12.4418 22.4473C14.4027 22.4473 16.3514 21.8856 16.772 21.1992C17.7791 19.5555 44.2209 19.5555 45.228 21.1992C46.2202 22.8192 52.8963 22.8192 53.8885 21.1992C54.3092 20.5128 55.7332 19.9511 57.0545 19.9511C59.2865 19.9511 59.456 20.9221 59.456 33.6798V47.4084H31H2.54403V33.6798C2.54403 20.9221 2.71352 19.9511 4.94546 19.9511C6.26681 19.9511 7.69085 20.5128 8.1115 21.1992Z" fill="#3250A5"/>
</svg>
