<svg width="1435" height="1125" fill="none" xmlns="http://www.w3.org/2000/svg"><path d="M1177.26 679.95v15.359c0 1.077-.87 1.95-1.95 1.95h-15.36c-1.08 0-1.95.873-1.95 1.95v9.582c0 1.077.87 1.95 1.95 1.95h15.36c1.08 0 1.95.873 1.95 1.95v15.359c0 1.077.87 1.95 1.95 1.95h9.58c1.08 0 1.95-.873 1.95-1.95v-15.359c0-1.077.87-1.95 1.95-1.95h15.36c1.08 0 1.95-.873 1.95-1.95v-9.582c0-1.077-.87-1.95-1.95-1.95h-15.36c-1.08 0-1.95-.873-1.95-1.95V679.95c0-1.077-.87-1.95-1.95-1.95h-9.58c-1.08 0-1.95.873-1.95 1.95z" fill="#FF8895"/><path d="M1370.19 300.575v36.035a4.577 4.577 0 01-4.58 4.575h-36.04a4.575 4.575 0 00-4.57 4.575v22.48a4.577 4.577 0 004.58 4.575h36.03c2.53 0 4.58 2.048 4.58 4.575v36.035a4.568 4.568 0 004.57 4.575h22.48c2.53 0 4.57-2.048 4.57-4.575V377.39a4.577 4.577 0 014.58-4.575h36.03c2.53 0 4.58-2.048 4.58-4.575v-22.48a4.577 4.577 0 00-4.58-4.575h-36.03a4.577 4.577 0 01-4.58-4.575v-36.035a4.568 4.568 0 00-4.57-4.575h-22.48a4.568 4.568 0 00-4.57 4.575z" fill="#FF6C7B"/><path d="M1251.93 228.625v20.676c0 1.45-1.18 2.625-2.63 2.625h-20.68a2.627 2.627 0 00-2.62 2.625v12.898c0 1.45 1.18 2.625 2.63 2.625h20.67c1.45 0 2.63 1.175 2.63 2.625v20.676a2.62 2.62 0 002.62 2.625h12.9a2.62 2.62 0 002.62-2.625v-20.676c0-1.45 1.18-2.625 2.63-2.625h20.68c1.44 0 2.62-1.175 2.62-2.625v-12.898c0-1.45-1.18-2.625-2.63-2.625h-20.67a2.629 2.629 0 01-2.63-2.625v-20.676a2.62 2.62 0 00-2.62-2.625h-12.9a2.62 2.62 0 00-2.62 2.625zm89.85-181.8v30.128a3.824 3.824 0 01-3.83 3.825h-30.13a3.822 3.822 0 00-3.82 3.825v18.794a3.822 3.822 0 003.82 3.825h30.13c2.12 0 3.83 1.713 3.83 3.825v30.128a3.823 3.823 0 003.82 3.825h18.8c2.11 0 3.82-1.713 3.82-3.825v-30.128a3.825 3.825 0 013.83-3.825h30.12c2.12 0 3.83-1.712 3.83-3.825V84.603a3.822 3.822 0 00-3.82-3.825h-30.13a3.824 3.824 0 01-3.83-3.825V46.825A3.822 3.822 0 001364.4 43h-18.8a3.822 3.822 0 00-3.82 3.825z" fill="#EA5968"/><path d="M1423 164.025v15.95c0 1.118-.91 2.025-2.02 2.025h-15.95c-1.12 0-2.03.907-2.03 2.025v9.95c0 1.118.91 2.025 2.02 2.025h15.96c1.11 0 2.02.907 2.02 2.025v15.95c0 1.118.91 2.025 2.02 2.025h9.96c1.11 0 2.02-.907 2.02-2.025v-15.95c0-1.118.91-2.025 2.03-2.025h15.94c1.12 0 2.03-.907 2.03-2.025v-9.95c0-1.118-.91-2.025-2.03-2.025h-15.94c-1.12 0-2.03-.907-2.03-2.025v-15.95c0-1.118-.91-2.025-2.02-2.025h-9.96c-1.11 0-2.02.907-2.02 2.025z" fill="#FE8995"/><path d="M1267.81 479.525v27.765a3.519 3.519 0 01-3.52 3.525h-27.77a3.525 3.525 0 00-3.52 3.525v17.32a3.527 3.527 0 003.53 3.525h27.76c1.95 0 3.52 1.578 3.52 3.525v27.765a3.527 3.527 0 003.53 3.525h17.32c1.95 0 3.53-1.578 3.53-3.525V538.71a3.519 3.519 0 013.52-3.525h27.76c1.95 0 3.53-1.578 3.53-3.525v-17.32a3.527 3.527 0 00-3.53-3.525h-27.76a3.519 3.519 0 01-3.52-3.525v-27.765a3.527 3.527 0 00-3.53-3.525h-17.32a3.527 3.527 0 00-3.53 3.525z" fill="#F75162"/><path d="M1077.7 590.412v26.879a3.407 3.407 0 01-3.41 3.413h-26.88a3.413 3.413 0 00-3.41 3.412v16.768a3.413 3.413 0 003.41 3.412h26.88c1.89 0 3.41 1.528 3.41 3.413v26.879a3.416 3.416 0 003.42 3.412h16.76c1.89 0 3.42-1.528 3.42-3.412v-26.879a3.407 3.407 0 013.41-3.413h26.88c1.88 0 3.41-1.528 3.41-3.412v-16.768a3.413 3.413 0 00-3.41-3.412h-26.88a3.407 3.407 0 01-3.41-3.413v-26.879a3.416 3.416 0 00-3.42-3.412h-16.76a3.416 3.416 0 00-3.42 3.412z" fill="#FF6A79"/><path d="M1376.56 589.588v20.38a2.59 2.59 0 01-2.59 2.588h-20.38a2.589 2.589 0 00-2.59 2.587v12.714a2.589 2.589 0 002.59 2.587h20.38a2.59 2.59 0 012.59 2.588v20.38a2.58 2.58 0 002.58 2.588h12.72a2.58 2.58 0 002.58-2.588v-20.38a2.59 2.59 0 012.59-2.588h20.38c1.43 0 2.59-1.158 2.59-2.587v-12.714a2.589 2.589 0 00-2.59-2.587h-20.38a2.59 2.59 0 01-2.59-2.588v-20.38a2.58 2.58 0 00-2.58-2.588h-12.72a2.58 2.58 0 00-2.58 2.588zm-216 469.002v20.38a2.59 2.59 0 01-2.59 2.59h-20.38c-1.43 0-2.59 1.15-2.59 2.58v12.72c0 1.43 1.16 2.58 2.59 2.58h20.38a2.59 2.59 0 012.59 2.59v20.38c0 1.43 1.15 2.59 2.58 2.59h12.72c1.43 0 2.58-1.16 2.58-2.59v-20.38a2.59 2.59 0 012.59-2.59h20.38c1.43 0 2.59-1.15 2.59-2.58v-12.72c0-1.43-1.16-2.58-2.59-2.58h-20.38a2.59 2.59 0 01-2.59-2.59v-20.38c0-1.43-1.15-2.59-2.58-2.59h-12.72c-1.43 0-2.58 1.16-2.58 2.59z" fill="#EA5968"/><path d="M1329.56 774.588v20.38a2.59 2.59 0 01-2.59 2.588h-20.38a2.589 2.589 0 00-2.59 2.587v12.714a2.589 2.589 0 002.59 2.587h20.38a2.59 2.59 0 012.59 2.588v20.38a2.58 2.58 0 002.58 2.588h12.72a2.58 2.58 0 002.58-2.588v-20.38a2.59 2.59 0 012.59-2.588h20.38c1.43 0 2.59-1.158 2.59-2.587v-12.714a2.589 2.589 0 00-2.59-2.587h-20.38a2.59 2.59 0 01-2.59-2.588v-20.38a2.58 2.58 0 00-2.58-2.588h-12.72a2.58 2.58 0 00-2.58 2.588z" fill="#FF6D7C"/><path d="M1150.19 790.562v28.061c0 1.967-1.6 3.562-3.57 3.562h-28.06a3.559 3.559 0 00-3.56 3.563v17.504a3.559 3.559 0 003.56 3.563h28.06c1.97 0 3.57 1.595 3.57 3.562v28.061a3.559 3.559 0 003.56 3.562h17.5c1.97 0 3.56-1.595 3.56-3.562v-28.061c0-1.967 1.6-3.562 3.57-3.562h28.06c1.97 0 3.56-1.595 3.56-3.563v-17.504a3.559 3.559 0 00-3.56-3.563h-28.06a3.567 3.567 0 01-3.57-3.562v-28.061a3.559 3.559 0 00-3.56-3.562h-17.5a3.559 3.559 0 00-3.56 3.562z" fill="#EA5968"/><path d="M1357.19 938.575v36.035a4.577 4.577 0 01-4.58 4.575h-36.04a4.575 4.575 0 00-4.57 4.575v22.48a4.57 4.57 0 004.58 4.57h36.03a4.58 4.58 0 014.58 4.58v36.03a4.57 4.57 0 004.57 4.58h22.48a4.57 4.57 0 004.57-4.58v-36.03a4.58 4.58 0 014.58-4.58h36.03a4.57 4.57 0 004.58-4.57v-22.48a4.577 4.577 0 00-4.58-4.575h-36.03a4.577 4.577 0 01-4.58-4.575v-36.035a4.568 4.568 0 00-4.57-4.575h-22.48a4.568 4.568 0 00-4.57 4.575z" fill="#FF6C7B"/><path d="M1011.26 883.95v15.359c0 1.077-.87 1.95-1.95 1.95h-15.36a1.95 1.95 0 00-1.95 1.95v9.582a1.95 1.95 0 001.95 1.95h15.36c1.08 0 1.95.873 1.95 1.95v15.359c0 1.077.87 1.95 1.95 1.95h9.58c1.08 0 1.95-.873 1.95-1.95v-15.359c0-1.077.87-1.95 1.95-1.95h15.36c1.08 0 1.95-.873 1.95-1.95v-9.582c0-1.077-.87-1.95-1.95-1.95h-15.36c-1.08 0-1.95-.873-1.95-1.95V883.95c0-1.077-.87-1.95-1.95-1.95h-9.58c-1.08 0-1.95.873-1.95 1.95z" fill="#EA5968"/></svg>